<svg
  height='100px'
  width='100px'
  fill="#000000"
  xmlns="http://www.w3.org/2000/svg"
  xmlns:xlink="http://www.w3.org/1999/xlink"
  version="1.1"
  x="0px"
  y="0px"
  viewBox="0 0 100 100"
  style="enable-background:new 0 0 100 100;"
  xml:space="preserve"
>
  <path d="M61.6,63.8H38.4c-17.5,0-31.8,13.5-33.2,30.6c-0.1,1.2,0.8,2.2,2,2.2c1,0,1.9-0.8,2-1.8C10.4,79.6,23,67.8,38.4,67.8h23.3  c15.4,0,28,11.9,29.3,26.9c0.1,1,0.9,1.8,2,1.8c1.2,0,2.1-1,2-2.2C93.5,77.2,79.1,63.8,61.6,63.8z M50,51.7  c12.9,0,23.3-10.5,23.3-23.3S62.9,5,50,5S26.7,15.5,26.7,28.4S37.1,51.7,50,51.7z M50,9c10.7,0,19.3,8.7,19.3,19.3  c0,10.7-8.7,19.3-19.3,19.3S30.7,39,30.7,28.4C30.7,17.7,39.3,9,50,9z"></path>
</svg>