<?xml version="1.0" encoding="UTF-8"?>
<svg width="400px" height="400px" viewBox="0 0 400 400" version="1.1" xmlns="http://www.w3.org/2000/svg" xmlns:xlink="http://www.w3.org/1999/xlink">
    <title>facebook</title>
    <defs>
        <polygon id="path-1" points="0 0 400 0 400 397 0 397"></polygon>
    </defs>
    <g id="Page-1" stroke="none" stroke-width="1" fill="none" fill-rule="evenodd">
        <g id="12.9″-iPad-Pro" transform="translate(-5.000000, -5.000000)">
            <g id="facebook" transform="translate(5.000000, 5.000000)">
                <g id="Group-3">
                    <mask id="mask-2" fill="white">
                        <use xlink:href="#path-1"></use>
                    </mask>
                    <g id="Clip-2"></g>
                    <path d="M400,199.705347 C400,89.4024309 310.451784,-0.0156031992 199.988281,-0.0156031992 C89.5247768,-0.0156031992 -0.0234388734,89.4024309 -0.0234388734,199.705347 C-0.0234388734,299.391847 73.1179561,382.017028 168.736449,397 L168.736449,257.437184 L117.952224,257.437184 L117.952224,199.705347 L168.736449,199.705347 L168.736449,155.704325 C168.736449,105.649262 198.596793,78.000393 244.283845,78.000393 C266.166768,78.000393 289.055999,81.9011928 289.055999,81.9011928 L289.055999,131.05127 L263.83499,131.05127 C238.988613,131.05127 231.240112,146.446557 231.240112,162.240896 L231.240112,199.705347 L286.712112,199.705347 L277.844405,257.437184 L231.240112,257.437184 L231.240112,397 C326.858605,382.017028 400,299.391847 400,199.705347" id="Fill-1" fill="#81888F" mask="url(#mask-2)"></path>
                </g>
                <path d="M277.795205,257.757282 L286.657534,199.92233 L231.219178,199.92233 L231.219178,162.390964 C231.219178,146.568415 238.962979,131.145631 263.794288,131.145631 L289,131.145631 L289,81.907767 C289,81.907767 266.124651,78 244.255,78 C198.595658,78 168.753425,105.698252 168.753425,155.842718 L168.753425,199.92233 L118,199.92233 L118,257.757282 L168.753425,257.757282 L168.753425,397.569369 C178.930267,399.167646 189.360877,400 199.986301,400 C210.611726,400 221.042336,399.167646 231.219178,397.569369 L231.219178,257.757282 L277.795205,257.757282" id="Fill-4" fill="#FFFFFE"></path>
            </g>
        </g>
    </g>
</svg>