<?xml version="1.0" encoding="UTF-8"?>
<svg width="410px" height="410px" viewBox="0 0 410 410" version="1.1" xmlns="http://www.w3.org/2000/svg" xmlns:xlink="http://www.w3.org/1999/xlink">
    <title>github-black-bg</title>
    <g id="github-black-bg" stroke="none" stroke-width="1" fill="none" fill-rule="evenodd">
        <g id="GitHub_Logo" transform="translate(0.000000, 102.167066)">
            <polygon id="Fill-1" fill="#11110F" points="0 204.957292 410 204.957292 410 0 0 0"></polygon>
            <path d="M311.474722,125.566059 C307.299271,125.439358 304.466997,123.543819 304.466997,123.543819 L304.466997,103.442431 C304.466997,103.442431 307.260833,101.729826 310.688889,101.42375 C315.023785,101.035104 319.20066,102.344826 319.20066,112.685937 C319.20066,123.590087 317.315799,125.741875 311.474722,125.566059 Z M316.222465,89.8013889 C309.385573,89.8013889 304.735347,92.8514757 304.735347,92.8514757 L304.735347,71.3577951 C304.735347,70.7968924 304.28691,70.3448958 303.734549,70.3448958 L291.56908,70.3448958 C291.016007,70.3448958 290.566858,70.7968924 290.566858,71.3577951 L290.566858,134.834479 C290.566858,135.39467 291.016007,135.849514 291.570503,135.849514 C291.571927,135.849514 300.008247,135.849514 300.011094,135.849514 C300.391198,135.849514 300.678767,135.653767 300.891597,135.311389 C301.10158,134.969722 301.404097,132.383733 301.404097,132.383733 C301.404097,132.383733 306.378194,137.098021 315.79467,137.098021 C326.850434,137.098021 333.190486,131.490417 333.190486,111.924306 C333.190486,92.3581944 323.06434,89.8013889 316.222465,89.8013889 L316.222465,89.8013889 Z" id="Fill-8" fill="#FFFFFE"></path>
            <path d="M283.321389,91.2271354 L271.284045,91.2271354 C270.732396,91.2271354 270.282535,91.682691 270.282535,92.2428819 L270.282535,123.36658 C270.282535,123.36658 267.223906,125.604497 262.883316,125.604497 C258.543437,125.604497 257.391736,123.634931 257.391736,119.385451 C257.391736,115.129566 257.391736,92.2428819 257.391736,92.2428819 C257.391736,91.682691 256.943299,91.2271354 256.390226,91.2271354 L244.172795,91.2271354 C243.621858,91.2271354 243.169861,91.682691 243.169861,92.2428819 C243.169861,92.2428819 243.169861,108.817274 243.169861,121.439722 C243.169861,134.064306 250.205347,137.15283 259.883767,137.15283 C267.82467,137.15283 274.226649,132.76526 274.226649,132.76526 C274.226649,132.76526 274.531302,135.077917 274.669392,135.35125 C274.806771,135.624583 275.166233,135.901476 275.554878,135.901476 L283.327083,135.866597 C283.878021,135.866597 284.330017,135.411042 284.330017,134.852986 L284.325747,92.2428819 C284.325747,91.682691 283.876597,91.2271354 283.321389,91.2271354" id="Fill-7" fill="#FFFFFE"></path>
            <path d="M237.219878,71.3577951 C237.219878,70.7968924 236.775712,70.3448958 236.21908,70.3448958 L224.08849,70.3448958 C223.534705,70.3448958 223.084132,70.7968924 223.084132,71.3577951 C223.084132,71.3599306 223.087691,94.8003993 223.087691,94.8003993 L204.178576,94.8003993 L204.178576,71.3577951 C204.178576,70.7968924 203.732986,70.3448958 203.177778,70.3448958 L191.047899,70.3448958 C190.49625,70.3448958 190.045677,70.7968924 190.045677,71.3577951 L190.045677,134.834479 C190.045677,135.39467 190.49625,135.849514 191.047899,135.849514 L203.177778,135.849514 C203.732986,135.849514 204.178576,135.39467 204.178576,134.834479 L204.178576,107.682656 L223.087691,107.682656 C223.087691,107.682656 223.054236,134.832344 223.054236,134.834479 C223.054236,135.39467 223.504097,135.849514 224.059306,135.849514 L236.218368,135.849514 C236.774288,135.849514 237.218455,135.39467 237.219878,134.834479 L237.219878,71.3577951" id="Fill-4" fill="#FFFFFE"></path>
            <path d="M183.077812,91.126059 L173.97809,91.126059 C173.97809,91.126059 173.964566,79.107934 173.964566,79.1050868 C173.964566,78.6495313 173.72967,78.4224653 173.203646,78.4224653 L160.803993,78.4224653 C160.321389,78.4224653 160.063003,78.6345833 160.063003,79.0979688 L160.063003,91.5203993 C160.063003,91.5203993 153.848941,93.0208854 153.428264,93.1411806 C153.010434,93.2628993 152.702222,93.6486979 152.702222,94.1092361 L152.702222,101.915608 C152.702222,102.477222 153.15066,102.929931 153.705156,102.929931 L160.063003,102.929931 C160.063003,102.929931 160.063003,111.09434 160.063003,121.710208 C160.063003,135.659462 169.847483,137.029688 176.449479,137.029688 C179.466823,137.029688 183.075677,136.060208 183.671458,135.840972 C184.031632,135.707865 184.240903,135.334878 184.240903,134.929861 L184.25158,126.342639 C184.25158,125.78316 183.778229,125.329028 183.245799,125.329028 C182.714792,125.329028 181.358802,125.545417 179.96224,125.545417 C175.492101,125.545417 173.97809,123.466944 173.97809,120.777031 C173.97809,118.088542 173.977378,102.929931 173.977378,102.929931 L183.077812,102.929931 C183.632309,102.929931 184.081458,102.477222 184.081458,101.915608 L184.081458,92.1375347 C184.081458,91.5773438 183.632309,91.126059 183.077812,91.126059" id="Fill-9" fill="#FFFFFE"></path>
            <path d="M148.213576,121.443993 C148.213576,119.817517 148.213576,92.1432292 148.213576,92.1432292 C148.213576,91.5865972 147.764427,91.1317535 147.209931,91.1317535 L135.117066,91.1317535 C134.562569,91.1317535 134.066441,91.7040451 134.066441,92.2599653 C134.066441,92.2599653 134.066441,127.518542 134.066441,134.240122 C134.066441,135.473681 134.835191,135.840972 135.829583,135.840972 C135.829583,135.840972 140.991597,135.840972 146.724479,135.840972 C147.920312,135.840972 148.213576,135.253733 148.213576,134.220191 C148.213576,131.970174 148.213576,123.155174 148.213576,121.443993" id="Fill-6" fill="#FFFFFE"></path>
            <path d="M149.080556,79.6866319 C149.080556,75.3189931 145.579184,71.7891493 141.258524,71.7891493 C136.942135,71.7891493 133.437205,75.3189931 133.437205,79.6866319 C133.437205,84.0507118 136.942135,87.5905208 141.258524,87.5905208 C145.579184,87.5905208 149.080556,84.0507118 149.080556,79.6866319" id="Fill-5" fill="#FFFFFE"></path>
            <path d="M126.189601,97.5081076 L104.645382,97.5081076 C104.089462,97.5081076 103.638889,97.9593924 103.638889,98.5153125 L103.638889,109.048611 C103.638889,109.604531 104.089462,110.05724 104.645382,110.05724 L113.04967,110.05724 L113.04967,123.143785 C113.04967,123.143785 111.162674,123.787257 105.945139,123.787257 C99.7901562,123.787257 91.1915451,121.537951 91.1915451,102.63026 C91.1915451,83.7175868 100.145347,81.2298264 108.551059,81.2298264 C115.827847,81.2298264 118.961927,82.5103646 120.957118,83.1282118 C121.584219,83.3203993 122.163628,82.6961458 122.163628,82.1395139 L124.566684,71.9628299 C124.566684,71.7015972 124.47842,71.3891146 124.182309,71.1762847 C123.372274,70.5982986 118.430208,67.832934 105.945139,67.832934 C91.5631076,67.832934 76.8095139,73.9516146 76.8095139,103.367691 C76.8095139,132.783767 93.7006597,137.167066 107.934635,137.167066 C119.72,137.167066 126.869375,132.131042 126.869375,132.131042 C127.164062,131.968038 127.196094,131.555903 127.196094,131.367986 L127.196094,98.5153125 C127.196094,97.9593924 126.745521,97.5081076 126.189601,97.5081076" id="Fill-3" fill="#FFFFFE"></path>
        </g>
    </g>
</svg>