<svg height='100px' width='100px'  fill="#000000" xmlns="http://www.w3.org/2000/svg" xmlns:xlink="http://www.w3.org/1999/xlink" version="1.1" x="0px" y="0px" viewBox="0 0 100 100" enable-background="new 0 0 100 100" xml:space="preserve"><g><g><path fill="none" d="M25.643,48.773c0.039-0.038,0.044-0.176,0.007-0.217c-0.839-0.928-1.418-2.107-2.727-2.888    c0.515,0.842,0.904,1.5,1.317,2.142c0.258,0.401,0.582,0.749,1.014,0.974C25.38,48.849,25.529,48.884,25.643,48.773z"></path><path fill="none" d="M17.464,47.795c0.794,1.273,0.791,3.152,2.742,3.527C19.121,50.274,18.748,48.676,17.464,47.795z"></path><path fill="none" d="M25.582,49.76c-0.687,2.016,1.255,3.437,0.596,5.271c0.852-0.67,1.04-1.222,0.714-2.07    C26.502,51.948,25.916,51.022,25.582,49.76z"></path><path fill="none" d="M21.776,55.726c0.262-1.323-0.156-2.66-1.135-3.768C20.579,53.385,21.425,54.364,21.776,55.726z"></path><path fill="none" d="M32.634,53.133c0.782-1.329,0.515-2.922-0.784-4.278C32.163,50.403,32.801,51.694,32.634,53.133z"></path><path fill="none" d="M26.13,48.694c-0.038-1.645-1.262-3.018-2.748-3.121C24.605,46.335,25.14,47.675,26.13,48.694z"></path><path fill="none" d="M28.243,43.289c1.155,1.421,1.578,3.216,3.127,4.417C31.515,46.134,29.777,43.69,28.243,43.289z"></path><path fill="none" d="M31.53,54.021c1.603-1.78,0.025-3.452-0.132-5.172C30.312,50.611,31.373,52.301,31.53,54.021z"></path><path fill="none" d="M27.474,53.795c0.279-1.59-0.333-2.847-1.377-3.945C26.206,51.292,27.31,52.378,27.474,53.795z"></path><path fill="none" d="M31.938,47.912c0.66-1.807-1.002-4.816-2.531-4.407C30.727,44.684,31.599,46.104,31.938,47.912z"></path><path fill="none" d="M21.264,56.842c0.528-1.715-0.788-2.776-0.997-4.121C19.766,54.234,20.901,55.333,21.264,56.842z"></path><path fill="none" d="M15.063,52.794c-0.028-1.723-0.747-3.013-2.021-3.514C13.476,50.856,14.371,52.389,15.063,52.794z"></path><path fill="none" d="M17.881,47.66c1.029,1.006,1.456,2.278,2.416,3.292C20.334,49.185,19.485,47.998,17.881,47.66z"></path><path fill="none" d="M5.596,49.22c1.436,0.77,2.455,1.912,3.894,2.485C8.994,50.027,7.377,48.869,5.596,49.22z"></path><path fill="none" d="M9.283,52.081c-1.316-0.643-2.229-1.874-3.613-2.422C6.591,50.867,7.498,52.096,9.283,52.081z"></path><path fill="none" d="M12.416,48.751c0.005,0.008,0.01,0.015,0.014,0.022c0-0.006-0.001-0.012-0.001-0.018    C12.427,48.754,12.416,48.751,12.416,48.751z"></path><path fill="none" d="M12.785,49.382c-0.056-0.219-0.229-0.407-0.355-0.608c0.036,1.02,0.206,2.022,0.585,2.96    c0.29,0.716,0.917,1.117,1.675,1.288C13.78,51.939,13.136,50.742,12.785,49.382z"></path><path fill="none" d="M15.256,53.602c-0.099-0.047-0.274,0.006-0.39,0.063c-0.713,0.347-1.495,1.902-1.426,2.794    c0.269-0.31,0.539-0.618,0.806-0.929c0.395-0.461,0.912-0.84,1.02-1.497C15.29,53.884,15.48,53.71,15.256,53.602z"></path><path fill="none" d="M13.421,56.482c0.006,0.004,0.012,0.009,0.018,0.013l0.002,0.003c-0.001-0.012-0.001-0.026-0.002-0.039    c-0.005,0.006-0.01,0.012-0.015,0.018C13.423,56.479,13.422,56.48,13.421,56.482z"></path><path fill="none" d="M13.278,55.513c0.169-0.742,0.619-1.347,1.149-1.938c-0.533-0.08-1.029-0.26-1.328,0.372    c-0.38,0.803-0.284,1.631-0.138,2.453c0.043,0.241,0.235,0.481,0.46,0.082C13.036,56.214,13.207,55.825,13.278,55.513z"></path><path fill="none" d="M75.759,47.81c0.413-0.642,0.802-1.301,1.317-2.142c-1.308,0.781-1.888,1.96-2.727,2.888    c-0.037,0.041-0.032,0.179,0.007,0.217c0.114,0.111,0.264,0.076,0.388,0.011C75.177,48.559,75.501,48.211,75.759,47.81z"></path><path fill="none" d="M86.958,49.28c-1.274,0.501-1.993,1.79-2.021,3.514C85.629,52.389,86.524,50.856,86.958,49.28z"></path><path fill="none" d="M78.224,55.726c0.351-1.361,1.197-2.34,1.135-3.768C78.38,53.065,77.962,54.403,78.224,55.726z"></path><path fill="none" d="M86.984,51.734c0.38-0.938,0.549-1.941,0.585-2.96c-0.125,0.201-0.298,0.39-0.355,0.608    c-0.351,1.36-0.995,2.557-1.906,3.64C86.068,52.851,86.694,52.45,86.984,51.734z"></path><path fill="none" d="M78.736,56.842c0.362-1.509,1.498-2.608,0.997-4.121C79.524,54.066,78.208,55.128,78.736,56.842z"></path><path fill="none" d="M82.536,47.795c-1.284,0.881-1.657,2.479-2.742,3.527C81.745,50.947,81.742,49.068,82.536,47.795z"></path><path fill="none" d="M87.571,48.756c0,0.006-0.001,0.012-0.001,0.018c0.005-0.007,0.01-0.015,0.014-0.022    C87.584,48.751,87.573,48.754,87.571,48.756z"></path><path fill="none" d="M94.33,49.659c-1.384,0.548-2.297,1.779-3.613,2.422C92.502,52.096,93.409,50.867,94.33,49.659z"></path><path fill="none" d="M85.134,53.665c-0.117-0.057-0.291-0.11-0.39-0.063c-0.224,0.108-0.034,0.282-0.01,0.43    c0.108,0.657,0.625,1.036,1.02,1.497c0.267,0.311,0.537,0.62,0.806,0.929C86.629,55.567,85.848,54.012,85.134,53.665z"></path><path fill="none" d="M85.573,53.574c0.531,0.591,0.98,1.196,1.149,1.938c0.071,0.313,0.242,0.701-0.143,0.969    c0.225,0.399,0.417,0.159,0.46-0.082c0.146-0.822,0.242-1.649-0.138-2.453C86.602,53.315,86.106,53.494,85.573,53.574z"></path><path fill="none" d="M86.56,56.459c-0.001,0.013,0,0.027-0.002,0.039l0.002-0.003c0.007-0.004,0.012-0.009,0.018-0.013    c-0.001-0.002-0.002-0.003-0.003-0.005C86.57,56.471,86.565,56.465,86.56,56.459z"></path><path fill="none" d="M90.51,51.705c1.44-0.573,2.458-1.715,3.894-2.485C92.623,48.869,91.006,50.027,90.51,51.705z"></path><path fill="none" d="M79.703,50.952c0.96-1.014,1.387-2.285,2.416-3.292C80.515,47.998,79.666,49.185,79.703,50.952z"></path><path fill="none" d="M70.592,43.505c-1.529-0.41-3.191,2.6-2.531,4.407C68.401,46.104,69.273,44.684,70.592,43.505z"></path><path fill="none" d="M68.47,54.021c0.158-1.72,1.218-3.41,0.132-5.172C68.444,50.569,66.866,52.241,68.47,54.021z"></path><path fill="none" d="M68.63,47.707c1.549-1.201,1.972-2.997,3.127-4.417C70.223,43.69,68.485,46.134,68.63,47.707z"></path><path fill="none" d="M67.366,53.133c-0.167-1.439,0.472-2.73,0.784-4.278C66.851,50.211,66.584,51.803,67.366,53.133z"></path><path fill="none" d="M73.108,52.961c-0.326,0.847-0.139,1.399,0.714,2.07c-0.659-1.833,1.283-3.255,0.596-5.271    C74.084,51.022,73.498,51.948,73.108,52.961z"></path><path fill="none" d="M76.618,45.572c-1.485,0.104-2.71,1.476-2.748,3.121C74.86,47.675,75.395,46.335,76.618,45.572z"></path><path fill="none" d="M72.526,53.795c0.165-1.417,1.268-2.504,1.377-3.945C72.859,50.948,72.246,52.205,72.526,53.795z"></path><path d="M36.412,48.85c-1.325-0.552-2.704-0.874-4.157-0.89c0.572-1.879-0.841-4.947-2.957-4.925    c-0.357,0.004-0.783-0.067-1.109-0.322c-0.154-0.121-0.302-0.135-0.437,0.028c-0.114,0.138-0.039,0.257,0.039,0.375    c0.123,0.186,0.242,0.374,0.37,0.557c0.966,1.378,1.574,2.981,2.839,4.268c-1.339,0.087-2.499,0.309-3.627,0.635    c-0.58,0.168-0.701-0.035-0.826-0.518c-0.45-1.743-1.523-2.825-3.366-3.038c-0.42-0.049-0.841-0.095-1.469-0.165    c1.442,1.154,1.857,2.887,3.133,3.986c0.263,0.226,0.116,0.384-0.126,0.5c-1.229,0.591-2.458,1.181-3.728,1.791    c-0.293-2.542-1.452-4.077-4.178-3.79c0.656,2.074,1.516,3.467,2.773,4.462c-0.806,0.456-1.614,0.892-2.522,1.123    c-1.172,0.299-1.451,0.137-1.651-1.038c-0.295-1.729-1.248-2.729-2.989-3.135c-0.006-0.181-0.214-0.267-0.273-0.237    c-0.216,0.112-0.148,0.364-0.104,0.525c0.378,1.373,0.18,2.977,1.606,3.947c-0.906-0.13-1.742-0.331-2.566-0.605    c-0.588-0.196-0.983-0.516-1.272-1.092C8.722,49.11,7.426,48.549,5,49.128c0.098,0.202,0.177,0.412,0.294,0.598    c0.865,1.375,1.84,2.74,3.617,2.782c1.238,0.029,2.344,0.382,3.496,0.686c0.451,0.119,0.555,0.206,0.301,0.643    c-0.488,0.837-0.322,1.718-0.092,2.606c0.1,0.385,0.479,0.433,0.646,0.711c0.13-0.163,0.254-0.331,0.39-0.488    c0.201-0.234,0.389-0.485,0.62-0.685c0.662-0.573,1.326-1.138,1.477-2.071c0.032-0.2,0.158-0.308,0.338-0.308    c1.347,0.001,2.503-0.638,3.796-1.216c-0.342,1.316,0.086,2.372,0.599,3.413c0.122,0.247,0.227,0.505,0.311,0.767    c0.086,0.272-0.171,0.722,0.219,0.803c0.365,0.076,0.646-0.276,0.867-0.571c0.294-0.391,0.421-0.838,0.456-1.327    c0.099-1.381-0.335-2.589-1.173-3.712c1.321-0.563,2.518-1.351,3.997-1.781c-0.322,0.931,0.017,1.695,0.336,2.464    c0.289,0.698,0.547,1.4,0.42,2.184c-0.036,0.222-0.282,0.469-0.018,0.681c0.279,0.224,0.545,0,0.78-0.113    c1.086-0.52,1.495-1.733,1.105-3.107c-0.258-0.909-0.73-1.709-1.264-2.512c1.49-0.35,2.888-0.748,4.403-0.756    c-0.255,0.679-0.36,1.297-0.359,1.95c0.002,1.179,0.637,2.26,0.482,3.468c-0.044,0.343,0.268,0.292,0.55,0.211    c1.045-0.303,1.76-1.215,1.857-2.335c0.102-1.183-0.28-2.228-0.929-3.293c1.362,0.09,2.547,0.431,3.752,0.671    c0.223,0.045,0.554,0.416,0.713,0.008C37.167,49.038,36.706,48.972,36.412,48.85z M5.67,49.659    c1.384,0.548,2.297,1.779,3.613,2.422C7.498,52.096,6.591,50.867,5.67,49.659z M5.596,49.22c1.781-0.351,3.398,0.807,3.894,2.485    C8.051,51.132,7.032,49.99,5.596,49.22z M15.063,52.794c-0.692-0.405-1.587-1.937-2.021-3.514    C14.316,49.781,15.035,51.07,15.063,52.794z M13.016,51.734c-0.38-0.938-0.549-1.941-0.585-2.96    c-0.005-0.007-0.01-0.015-0.014-0.022c0,0,0.011,0.003,0.013,0.005c0,0.006,0.001,0.012,0.001,0.018    c0.125,0.201,0.298,0.39,0.355,0.608c0.351,1.36,0.995,2.557,1.906,3.64C13.932,52.851,13.306,52.45,13.016,51.734z     M15.266,54.033c-0.108,0.657-0.625,1.036-1.02,1.497c-0.267,0.311-0.537,0.62-0.806,0.929c0.001,0.013,0,0.027,0.002,0.039    l-0.002-0.003c-0.007-0.004-0.012-0.009-0.018-0.013c-0.225,0.399-0.417,0.159-0.46-0.082c-0.146-0.822-0.242-1.649,0.138-2.453    c0.299-0.632,0.795-0.453,1.328-0.372c-0.531,0.591-0.98,1.196-1.149,1.938c-0.071,0.313-0.242,0.701,0.143,0.969    c0.001-0.002,0.002-0.003,0.003-0.005c0.005-0.006,0.01-0.012,0.015-0.018c-0.069-0.892,0.713-2.447,1.426-2.794    c0.117-0.057,0.291-0.11,0.39-0.063C15.48,53.71,15.29,53.884,15.266,54.033z M20.297,50.952c-0.96-1.014-1.387-2.285-2.416-3.292    C19.485,47.998,20.334,49.185,20.297,50.952z M17.464,47.795c1.284,0.881,1.657,2.479,2.742,3.527    C18.255,50.947,18.258,49.068,17.464,47.795z M21.264,56.842c-0.362-1.509-1.498-2.608-0.997-4.121    C20.476,54.066,21.792,55.128,21.264,56.842z M21.776,55.726c-0.351-1.361-1.197-2.34-1.135-3.768    C21.62,53.065,22.038,54.403,21.776,55.726z M26.13,48.694c-0.99-1.019-1.525-2.359-2.748-3.121    C24.867,45.676,26.092,47.049,26.13,48.694z M24.241,47.81c-0.413-0.642-0.802-1.301-1.317-2.142    c1.308,0.781,1.888,1.96,2.727,2.888c0.037,0.041,0.032,0.179-0.007,0.217c-0.114,0.111-0.264,0.076-0.388,0.011    C24.823,48.559,24.499,48.211,24.241,47.81z M26.178,55.03c0.659-1.833-1.282-3.255-0.596-5.271    c0.333,1.262,0.919,2.188,1.309,3.201C27.218,53.808,27.031,54.36,26.178,55.03z M27.474,53.795    c-0.165-1.417-1.268-2.504-1.377-3.945C27.141,50.948,27.754,52.205,27.474,53.795z M31.938,47.912    c-0.339-1.808-1.211-3.228-2.531-4.407C30.936,43.095,32.598,46.105,31.938,47.912z M28.243,43.289    c1.534,0.4,3.272,2.845,3.127,4.417C29.822,46.505,29.399,44.71,28.243,43.289z M31.53,54.021c-0.158-1.72-1.218-3.41-0.132-5.172    C31.556,50.569,33.134,52.241,31.53,54.021z M32.634,53.133c0.167-1.439-0.472-2.73-0.784-4.278    C33.149,50.211,33.416,51.803,32.634,53.133z"></path><path d="M90.182,51.293c-0.289,0.576-0.684,0.896-1.272,1.092c-0.823,0.274-1.66,0.475-2.566,0.605    c1.426-0.971,1.228-2.575,1.606-3.947c0.044-0.161,0.112-0.413-0.104-0.525c-0.059-0.03-0.267,0.055-0.273,0.237    c-1.741,0.406-2.695,1.405-2.989,3.135c-0.2,1.175-0.479,1.337-1.651,1.038c-0.908-0.231-1.716-0.667-2.522-1.123    c1.257-0.995,2.117-2.388,2.773-4.462c-2.726-0.287-3.884,1.248-4.177,3.79c-1.269-0.61-2.498-1.2-3.728-1.791    c-0.242-0.116-0.388-0.273-0.126-0.5c1.276-1.099,1.692-2.832,3.133-3.986c-0.628,0.07-1.048,0.116-1.469,0.165    c-1.843,0.213-2.916,1.295-3.366,3.038c-0.125,0.483-0.246,0.686-0.826,0.518c-1.128-0.326-2.287-0.549-3.627-0.635    c1.265-1.287,1.873-2.89,2.839-4.268c0.128-0.182,0.247-0.371,0.37-0.557c0.079-0.118,0.153-0.237,0.039-0.375    c-0.135-0.164-0.282-0.149-0.437-0.028c-0.326,0.255-0.753,0.326-1.109,0.322c-2.116-0.023-3.529,3.045-2.957,4.925    c-1.453,0.016-2.832,0.338-4.157,0.89c-0.294,0.122-0.755,0.188-0.575,0.647c0.16,0.408,0.49,0.037,0.713-0.008    c1.205-0.24,2.39-0.581,3.752-0.671c-0.648,1.064-1.031,2.11-0.929,3.293c0.097,1.12,0.811,2.032,1.857,2.335    c0.282,0.082,0.594,0.133,0.55-0.211c-0.155-1.208,0.48-2.288,0.482-3.468c0.001-0.653-0.104-1.271-0.359-1.95    c1.515,0.008,2.913,0.407,4.403,0.756c-0.534,0.803-1.007,1.604-1.264,2.512c-0.39,1.374,0.019,2.587,1.105,3.107    c0.235,0.113,0.501,0.337,0.78,0.113c0.264-0.212,0.018-0.459-0.018-0.681c-0.127-0.784,0.131-1.486,0.42-2.184    c0.319-0.77,0.657-1.533,0.336-2.464c1.48,0.431,2.676,1.219,3.997,1.781c-0.837,1.123-1.272,2.332-1.173,3.712    c0.035,0.489,0.163,0.936,0.456,1.327c0.221,0.294,0.502,0.647,0.867,0.571c0.39-0.081,0.133-0.531,0.219-0.803    c0.083-0.262,0.189-0.52,0.311-0.767c0.513-1.041,0.942-2.097,0.599-3.413c1.293,0.578,2.448,1.217,3.796,1.216    c0.18,0,0.306,0.107,0.338,0.308c0.151,0.933,0.815,1.498,1.477,2.071c0.231,0.2,0.419,0.452,0.62,0.685    c0.136,0.158,0.26,0.325,0.39,0.488c0.166-0.278,0.546-0.326,0.646-0.711c0.23-0.888,0.396-1.768-0.092-2.606    c-0.254-0.436-0.15-0.524,0.3-0.643c1.152-0.304,2.258-0.657,3.496-0.686c1.777-0.042,2.752-1.406,3.617-2.782    c0.117-0.186,0.196-0.396,0.294-0.598C92.574,48.549,91.278,49.11,90.182,51.293z M71.757,43.289    c-1.155,1.421-1.578,3.216-3.127,4.417C68.485,46.134,70.223,43.69,71.757,43.289z M70.592,43.505    c-1.32,1.179-2.192,2.599-2.531,4.407C67.402,46.105,69.064,43.095,70.592,43.505z M67.366,53.133    c-0.782-1.329-0.515-2.922,0.784-4.278C67.837,50.403,67.199,51.694,67.366,53.133z M68.47,54.021    c-1.604-1.78-0.025-3.452,0.132-5.172C69.688,50.611,68.627,52.301,68.47,54.021z M76.618,45.572    c-1.223,0.763-1.758,2.103-2.748,3.121C73.908,47.049,75.133,45.676,76.618,45.572z M72.526,53.795    c-0.279-1.59,0.333-2.847,1.377-3.945C73.794,51.292,72.69,52.378,72.526,53.795z M73.822,55.03    c-0.852-0.67-1.04-1.222-0.714-2.07c0.39-1.013,0.976-1.939,1.31-3.201C75.104,51.775,73.163,53.197,73.822,55.03z M74.745,48.784    c-0.125,0.065-0.275,0.1-0.388-0.011c-0.039-0.038-0.044-0.176-0.007-0.217c0.839-0.928,1.418-2.107,2.727-2.888    c-0.515,0.842-0.904,1.5-1.317,2.142C75.501,48.211,75.177,48.559,74.745,48.784z M82.119,47.66    c-1.029,1.006-1.456,2.278-2.416,3.292C79.666,49.185,80.515,47.998,82.119,47.66z M78.224,55.726    c-0.262-1.323,0.156-2.66,1.135-3.768C79.421,53.385,78.575,54.364,78.224,55.726z M78.736,56.842    c-0.528-1.715,0.788-2.776,0.997-4.121C80.234,54.234,79.099,55.333,78.736,56.842z M79.794,51.322    c1.085-1.048,1.457-2.646,2.742-3.527C81.742,49.068,81.745,50.947,79.794,51.322z M87.57,48.774c0-0.006,0.001-0.012,0.001-0.018    c0.003-0.002,0.013-0.005,0.013-0.005C87.58,48.759,87.574,48.766,87.57,48.774c-0.036,1.02-0.206,2.022-0.585,2.96    c-0.29,0.716-0.917,1.117-1.675,1.288c0.91-1.083,1.555-2.28,1.906-3.64C87.271,49.163,87.444,48.974,87.57,48.774z M86.958,49.28    c-0.434,1.576-1.329,3.109-2.021,3.514C84.965,51.07,85.684,49.781,86.958,49.28z M87.039,56.4    c-0.043,0.241-0.235,0.481-0.46,0.082c-0.006,0.004-0.012,0.009-0.018,0.013l-0.002,0.003c0.001-0.012,0.001-0.026,0.002-0.039    c-0.269-0.31-0.539-0.618-0.806-0.929c-0.395-0.461-0.912-0.84-1.02-1.497c-0.024-0.148-0.215-0.322,0.01-0.43    c0.099-0.047,0.274,0.006,0.39,0.063c0.713,0.347,1.495,1.902,1.426,2.794c0.005,0.006,0.01,0.012,0.015,0.018    c0.001,0.002,0.002,0.003,0.003,0.005c0.385-0.268,0.214-0.657,0.143-0.969c-0.169-0.742-0.619-1.347-1.149-1.938    c0.533-0.08,1.029-0.26,1.328,0.372C87.281,54.75,87.185,55.577,87.039,56.4z M90.717,52.081c1.316-0.643,2.229-1.874,3.613-2.422    C93.409,50.867,92.502,52.096,90.717,52.081z M90.51,51.705c0.497-1.678,2.114-2.836,3.894-2.485    C92.968,49.99,91.949,51.132,90.51,51.705z"></path></g></g></svg>